<svg id="Livello_1" data-name="Livello 1" xmlns="http://www.w3.org/2000/svg" viewBox="0 0 674.25 114.4"><defs><style>.cls-1,.cls-2{fill:#fff;}.cls-2{fill-rule:evenodd;}</style></defs><title>h-logo-neg-bn</title><path class="cls-1" d="M134.81,84.94V65.86h3.84V84.53c0,5.62,2,8.75,7.4,8.75s7.45-3.16,7.45-8.84V65.86h3.84V84.72c0,7.63-3.58,12.29-11.29,12.29S134.81,92.39,134.81,84.94Z"/><path class="cls-1" d="M161.91,74.88h3.68v3.31a7.61,7.61,0,0,1,6.67-3.68c5.29,0,7.62,3.92,7.68,8.58V96.64h-3.68V83.76c0-3.59-1.72-5.83-5-5.83-3.46,0-5.66,2.07-5.66,6.16V96.64h-3.68Z"/><path class="cls-1" d="M198.18,78h-4.35V74.88h4.38V71.65c0-4,2.78-6.16,6.44-6.16a8,8,0,0,1,3.47.85l-1.22,3a4.11,4.11,0,0,0-1.92-.59c-1.83,0-3,1-3,3.24v2.86h5.94V78H202V96.64h-3.82Z"/><path class="cls-1" d="M211.3,88.4V74.88H215V87.75c0,3.59,1.72,5.84,5,5.84,3.46,0,5.68-2.09,5.68-6.17V74.88h3.66V96.64h-3.66V93.32A7.61,7.61,0,0,1,219,97C213.67,97,211.37,93.06,211.3,88.4Z"/><path class="cls-1" d="M237.4,90.56V78h-3.6V74.88h3.64v-6l3.64-2.66v8.67H247V78h-5.88V90c0,2.74,1.15,3.79,3.16,3.79a7.22,7.22,0,0,0,2.7-.61l0,3.35a10.58,10.58,0,0,1-3.35.53C239.62,97,237.4,94.65,237.4,90.56Z"/><path class="cls-1" d="M250.82,88.4V74.88h3.66V87.75c0,3.59,1.72,5.84,5,5.84,3.46,0,5.68-2.09,5.68-6.17V74.88h3.66V96.64h-3.66V93.32A7.61,7.61,0,0,1,258.49,97C253.19,97,250.89,93.06,250.82,88.4Z"/><path class="cls-1" d="M274.14,74.88h3.6v4.27a6.73,6.73,0,0,1,6.42-4.64,5.59,5.59,0,0,1,3.6,1.2l-1.7,3a5,5,0,0,0-2.44-.65c-2.75,0-5.9,2.29-5.9,8.06V96.64h-3.58Z"/><path class="cls-1" d="M288.28,85.7c0-6.18,4.34-11.19,10.72-11.19s10.76,5,10.76,11.19S305.38,97,299,97,288.28,91.93,288.28,85.7Zm17.65,0c0-4.38-2.44-8-6.93-8s-6.88,3.59-6.88,8,2.42,8.1,6.88,8.1S305.93,90.1,305.93,85.7Z"/><path class="cls-1" d="M324.14,74.88h3.6v4.27a6.73,6.73,0,0,1,6.42-4.64,5.59,5.59,0,0,1,3.6,1.2l-1.7,3a5,5,0,0,0-2.44-.65c-2.75,0-5.9,2.29-5.9,8.06V96.64h-3.58Z"/><path class="cls-1" d="M341.57,65.86h3.86v4.62h-3.86Zm.09,9h3.68V96.64h-3.68Z"/><path class="cls-1" d="M349.72,85.79c0-5.71,3.27-11.28,10-11.28a9.19,9.19,0,0,1,9,6.12L365.19,82a5.71,5.71,0,0,0-5.47-4.14c-4.36,0-6.25,3.9-6.25,7.93s1.89,7.86,6.25,7.86a5.52,5.52,0,0,0,5.4-4.07l3.35,1.26A8.85,8.85,0,0,1,359.76,97C353.23,97,349.72,91.82,349.72,85.79Z"/><path class="cls-1" d="M370.9,85.79c0-5.71,3.27-11.28,10-11.28a9.19,9.19,0,0,1,9,6.12L386.36,82a5.69,5.69,0,0,0-5.46-4.14c-4.36,0-6.25,3.9-6.25,7.93s1.89,7.86,6.25,7.86a5.52,5.52,0,0,0,5.4-4.07l3.35,1.26A8.85,8.85,0,0,1,380.94,97C374.41,97,370.9,91.82,370.9,85.79Z"/><path class="cls-1" d="M392.6,85.7c0-6.18,4.33-11.19,10.71-11.19s10.76,5,10.76,11.19S409.7,97,403.31,97,392.6,91.93,392.6,85.7Zm17.64,0c0-4.38-2.44-8-6.93-8s-6.88,3.59-6.88,8,2.42,8.1,6.88,8.1S410.24,90.1,410.24,85.7Z"/><path class="cls-1" d="M426.67,85.75c0-6.12,3.64-11.24,9.54-11.24a8,8,0,0,1,7.28,4.29V65.86h3.74V96.64h-3.44l-.15-4.12A8,8,0,0,1,436.28,97C430.31,97,426.67,91.89,426.67,85.75Zm17.12,0c0-4.47-2.42-7.89-6.64-7.89s-6.73,3.46-6.73,7.89,2.46,7.9,6.73,7.9S443.79,90.23,443.79,85.75Z"/><path class="cls-1" d="M452.34,65.86h3.85v4.62h-3.85Zm.08,9h3.68V96.64h-3.68Z"/><path class="cls-1" d="M470.6,85.85c0-6,3.39-11.34,10.06-11.34,7.29,0,9.67,5.86,9.67,10.34a10,10,0,0,1-.18,2H474.49c.29,4.18,2.49,6.79,6.56,6.79A7.53,7.53,0,0,0,487,91l2.57,2.24A10.85,10.85,0,0,1,481,97C474.15,97,470.6,92,470.6,85.85Zm16.07-1.69a6.91,6.91,0,0,0-.09-1.38,5.69,5.69,0,0,0-5.94-5.16c-3.68,0-5.73,2.72-6.15,6.54Z"/><path class="cls-1" d="M492.93,91.15l3-1.31a5.9,5.9,0,0,0,5.77,4.07c3,0,4.53-1.61,4.53-3.53,0-5.16-12.07-1.83-12.07-9.64,0-4.1,3.49-6.23,7.67-6.23a8.55,8.55,0,0,1,7.84,4.59l-2.85,1.55a5.66,5.66,0,0,0-5.12-3.2c-2.46,0-4,1.17-4,2.81,0,4.7,12.18,1.74,12.18,9.95,0,4.57-3.79,6.8-8,6.8C497.46,97,494,94.46,492.93,91.15Z"/><path class="cls-1" d="M513.85,74.88h3.81V78.8a8,8,0,0,1,7.27-4.29c5.91,0,9.24,5.14,9.24,11.26S530.84,97,524.87,97a7.92,7.92,0,0,1-7.21-4.29v12.93h-3.81Zm16.62,10.89c0-4.42-2.18-7.84-6.43-7.84s-6.71,3.35-6.71,7.84,2.46,7.88,6.71,7.88S530.47,90.19,530.47,85.77Z"/><path class="cls-1" d="M536.85,85.85c0-6,3.4-11.34,10.07-11.34,7.29,0,9.67,5.86,9.67,10.34a10,10,0,0,1-.18,2H540.75c.29,4.18,2.49,6.79,6.56,6.79a7.54,7.54,0,0,0,6-2.61l2.57,2.24A10.85,10.85,0,0,1,547.29,97C540.4,97,536.85,92,536.85,85.85Zm16.08-1.69a6.91,6.91,0,0,0-.09-1.38,5.7,5.7,0,0,0-6-5.16c-3.68,0-5.72,2.72-6.14,6.54Z"/><path class="cls-1" d="M560.93,74.88h3.59v4.27A6.75,6.75,0,0,1,571,74.51a5.58,5.58,0,0,1,3.59,1.2l-1.7,3a5,5,0,0,0-2.44-.65c-2.74,0-5.9,2.29-5.9,8.06V96.64h-3.57Z"/><path class="cls-1" d="M578.35,65.86h3.86v4.62h-3.86Zm.09,9h3.68V96.64h-3.68Z"/><path class="cls-1" d="M586.53,85.85c0-6,3.39-11.34,10.06-11.34,7.3,0,9.67,5.86,9.67,10.34a11,11,0,0,1-.17,2H590.43c.28,4.18,2.48,6.79,6.55,6.79A7.53,7.53,0,0,0,603,91l2.57,2.24A10.85,10.85,0,0,1,597,97C590.08,97,586.53,92,586.53,85.85Zm16.07-1.69a6.91,6.91,0,0,0-.09-1.38,5.69,5.69,0,0,0-5.94-5.16c-3.68,0-5.73,2.72-6.14,6.54Z"/><path class="cls-1" d="M610.14,74.88h3.68v3.31a7.63,7.63,0,0,1,6.67-3.68c5.29,0,7.62,3.92,7.69,8.58V96.64H624.5V83.76c0-3.59-1.73-5.83-5-5.83-3.47,0-5.67,2.07-5.67,6.16V96.64h-3.68Z"/><path class="cls-1" d="M651.09,77.69,637.61,93.52H651v3.12H632.63V94L646.46,78H633.32V74.88h17.77Z"/><path class="cls-1" d="M673.08,83.37V96.64H670l-.24-3.88A8.48,8.48,0,0,1,662.23,97c-4.42,0-7.64-2.51-7.64-6.82,0-4.51,3.61-6.23,9-6.23h6.16c0-4.25-1.41-6.23-5.53-6.23a6.7,6.7,0,0,0-5.92,3.4l-2.83-2a10,10,0,0,1,8.71-4.57C669.85,74.51,673.08,78,673.08,83.37Zm-3.36,4.71V86.66h-5.94c-3.66,0-5.4,1.46-5.4,3.66S660,93.85,663,93.85C666.63,93.85,669,91.34,669.72,88.08Z"/><path class="cls-1" d="M150.76,35.44v4.64h8.17V50.59a31.64,31.64,0,0,1-7,.78c-4.49,0-8-1.25-10.29-3.71s-3.49-6.1-3.49-10.91q0-6.85,3.63-10.72c2.41-2.57,5.81-3.87,10.12-3.87a23.91,23.91,0,0,1,9.34,2.09l.38.14,2-4.47-.37-.17a28.15,28.15,0,0,0-11-2.18,21.86,21.86,0,0,0-10.26,2.3,16,16,0,0,0-6.74,6.72,21.31,21.31,0,0,0-2.35,10.16c0,6,1.6,10.76,4.75,14.1s7.57,5,13.18,5a44.2,44.2,0,0,0,7-.48,42.69,42.69,0,0,0,6-1.4l.28-.08V35.44Z"/><path class="cls-1" d="M185.83,41.88c3.84-1.48,5.77-4.24,5.77-8.16,0-2.92-.92-5.14-2.74-6.61S184.29,25,180.54,25H172V55.39h4.26V43.09h5.53l7.07,12.1.12.2h5Zm-9.57-13.09h4.07c2.47,0,4.26.4,5.32,1.19a4.61,4.61,0,0,1,1.58,3.93,5.07,5.07,0,0,1-1.54,4,7.91,7.91,0,0,1-5.1,1.36h-4.33Z"/><path class="cls-1" d="M216.77,25V44.66a7.33,7.33,0,0,1-1.9,5.4A7.33,7.33,0,0,1,209.36,52c-2.53,0-4.43-.62-5.67-1.9a7.13,7.13,0,0,1-1.91-5.36V25h-4.24V44.44a11.32,11.32,0,0,0,3,8.31c2,2,4.92,3,8.58,3s6.56-1,8.68-3A10.89,10.89,0,0,0,221,44.54V25Z"/><path class="cls-1" d="M236.41,25h-8.08V55.39h4.25V43.7h3.07c4,0,6.95-.8,9-2.5A8.59,8.59,0,0,0,247.93,34C247.93,28,244,25,236.41,25Zm-3.83,3.77H236c2.6,0,4.53.46,5.75,1.34a4.85,4.85,0,0,1,1.76,4.11,5,5,0,0,1-1.88,4.35c-1.29,1-3.38,1.42-6.39,1.42h-2.69Z"/><path class="cls-1" d="M261.25,25h-8.09V55.39h4.25V43.7h3.08c4,0,6.95-.8,9.06-2.5a8.57,8.57,0,0,0,3.2-7.22C272.75,28,268.89,25,261.25,25Zm-3.84,3.77h3.45a10.09,10.09,0,0,1,5.77,1.34,4.78,4.78,0,0,1,1.77,4.11,5,5,0,0,1-1.89,4.36c-1.27.95-3.37,1.41-6.4,1.41h-2.7Z"/><path class="cls-1" d="M301.46,28.68c-2.47-2.78-5.93-4.21-10.29-4.21s-8,1.38-10.44,4.12-3.67,6.54-3.67,11.52,1.24,8.85,3.66,11.55,5.95,4.14,10.42,4.14,7.84-1.42,10.32-4.22,3.68-6.65,3.68-11.45S303.9,31.44,301.46,28.68ZM291.14,52c-3.14,0-5.5-1-7.15-3s-2.48-4.93-2.48-8.85.84-6.81,2.48-8.82,4-2.92,7.18-2.92,5.49.95,7.12,2.9,2.4,5,2.4,8.84S299.85,47,298.25,49,294.27,52,291.14,52Z"/><path class="cls-1" d="M333.51,38.9c-1.5-1.58-4.16-3.08-8.07-4.5a26.5,26.5,0,0,1-5-2.22,5.78,5.78,0,0,1-2.24-2.05,5.89,5.89,0,0,1-.6-2.89,4.35,4.35,0,0,1,1.73-3.71,8.18,8.18,0,0,1,5-1.37A23.26,23.26,0,0,1,333,24l.38.17,1.61-4.4-.35-.15a24.43,24.43,0,0,0-10.18-2.05,13.56,13.56,0,0,0-8.65,2.59,8.51,8.51,0,0,0-3.3,7,9.84,9.84,0,0,0,2.25,6.76c1.51,1.73,3.93,3.2,7.47,4.47a33.56,33.56,0,0,1,5.37,2.3A6.51,6.51,0,0,1,330,42.79a5.06,5.06,0,0,1,.71,2.91,4.81,4.81,0,0,1-2,4.13q-2,1.55-6.15,1.54a23.45,23.45,0,0,1-5.13-.57,23.16,23.16,0,0,1-4.83-1.44l-.54-.22v4.94l.21.1c2.41,1.15,5.84,1.72,10.17,1.72,4,0,7.3-.93,9.72-2.78a9.35,9.35,0,0,0,3.66-7.82A9.27,9.27,0,0,0,333.51,38.9Z"/><path class="cls-1" d="M350,25h-8.09V55.39h4.25V43.7h3.08c4,0,7-.8,9-2.5A8.5,8.5,0,0,0,361.52,34C361.52,28,357.66,25,350,25Zm-3.84,3.77h3.44c2.61,0,4.58.46,5.77,1.34a4.76,4.76,0,0,1,1.74,4.11c0,2-.59,3.48-1.85,4.36s-3.37,1.41-6.41,1.41h-2.69Z"/><path class="cls-1" d="M376.48,24.84H373L361,55.39h4.39l3.6-9.47h11.38L384,55.39h4.44Zm2.44,17.21h-8.39l3.27-8.65a27.93,27.93,0,0,0,.9-2.87c.36,1.07.67,2,1,2.87Z"/><path class="cls-1" d="M404.31,39.07v3.87H411v8.41a25.55,25.55,0,0,1-5.68.62c-3.67,0-6.38-1-8.29-3s-2.81-4.94-2.81-8.85c0-3.64,1-6.54,2.95-8.63s4.65-3.09,8.14-3.09a19.63,19.63,0,0,1,7.61,1.67l.37.16,1.62-3.78-.38-.17a22.76,22.76,0,0,0-9-1.79,17.5,17.5,0,0,0-8.32,1.9,13.46,13.46,0,0,0-5.54,5.47,17.46,17.46,0,0,0-1.87,8.26c0,4.94,1.28,8.83,3.86,11.54s6.22,4.13,10.81,4.13a33.27,33.27,0,0,0,5.65-.4,25.47,25.47,0,0,0,4.82-1.15l.32-.09V39.07Z"/><path class="cls-1" d="M434.67,39.07v3.87h6.68v8.41a24.83,24.83,0,0,1-5.6.62c-3.65,0-6.49-1-8.38-3s-2.77-5-2.77-8.85c0-3.65,1-6.55,2.93-8.63a10.68,10.68,0,0,1,8.12-3.09,19.78,19.78,0,0,1,7.62,1.67l.37.16,1.6-3.78-.37-.17a22.53,22.53,0,0,0-8.93-1.79,17.36,17.36,0,0,0-8.39,1.9A13.19,13.19,0,0,0,422,31.87a18.19,18.19,0,0,0-1.83,8.26c0,4.95,1.24,8.84,3.86,11.54s6.18,4.13,10.77,4.13a33.07,33.07,0,0,0,5.64-.4,25.57,25.57,0,0,0,4.83-1.15l.32-.09V39.07Z"/><rect class="cls-1" x="452.35" y="24.95" width="4.24" height="30.44"/><path class="cls-1" d="M476.11,24.84h-3.45l-11.86,30-.21.56H465l3.66-9.47H480l3.67,9.47h4.43Zm2.48,17.21h-8.43l3.26-8.65c.39-1,.65-2,.95-2.88a28,28,0,0,0,1,2.88Z"/><path class="cls-1" d="M505.9,41.88c3.84-1.47,5.77-4.23,5.77-8.16,0-2.92-.94-5.15-2.8-6.61s-4.5-2.16-8.3-2.16h-8.5V55.39h4.24V43.09h5.56L509,55.19l.08.2h5Zm-9.59-13.09h4.06c2.48,0,4.25.4,5.35,1.2a4.62,4.62,0,0,1,1.55,3.92,5.09,5.09,0,0,1-1.53,4,8,8,0,0,1-5.14,1.36h-4.29Z"/><rect class="cls-1" x="518.27" y="24.95" width="4.29" height="30.44"/><path class="cls-1" d="M543.17,18.12h-9.92V55.39h5.1V41.05h3.89c4.79,0,8.48-1,11.07-3.06a10.77,10.77,0,0,0,3.93-8.83C557.24,21.82,552.47,18.12,543.17,18.12Zm-4.82,4.43h4.31c3.24,0,5.65.58,7.14,1.72a5.82,5.82,0,0,1,2.25,5.08c0,2.52-.79,4.36-2.35,5.49s-4.2,1.73-8,1.73h-3.38Z"/><path class="cls-1" d="M570.41,24.84H567l-11.83,30-.21.56h4.38l3.63-9.47h11.32L578,55.39h4.43Zm2.45,17.21h-8.4l3.3-8.65c.39-1,.65-2,.89-2.88.34,1.12.68,2.06,1,2.88Z"/><path class="cls-1" d="M600.23,41.88c3.82-1.47,5.76-4.24,5.76-8.16,0-2.92-.92-5.14-2.79-6.61S598.61,25,594.91,25h-8.54V55.39h4.28V43.09h5.53l7,12.1.15.2h5Zm-9.58-13.09h4.06c2.47,0,4.24.4,5.35,1.2a4.63,4.63,0,0,1,1.54,3.92,5.09,5.09,0,0,1-1.54,4c-1.1.91-2.82,1.35-5.13,1.35h-4.28Z"/><path class="cls-1" d="M637,25l-9.28,23.94-9.12-23.67-.08-.27H612.6V55.39h4V36.16c0-2,0-3.74-.15-5.3l9.32,24.26.08.27h3.31l9.52-24.49c-.13,1.75-.16,3.39-.16,5V55.39h4.25V25Z"/><path class="cls-1" d="M662.26,24.84H658.8L647,54.83l-.21.56h4.34l3.67-9.47h11.33l3.68,9.47h4.46Zm2.45,17.21H656.3l3.29-8.65a29.81,29.81,0,0,0,.88-2.88c.36,1.1.71,2.05,1,2.88Z"/><path class="cls-2" d="M33,46.66,87.69,7.06,64.42.21A5.18,5.18,0,0,0,59.91,1L26.1,25.44Z"/><path class="cls-2" d="M17.23,73.94l22.3,0L18.79,9.69l-13.71,20a5.16,5.16,0,0,0-.65,4.53Z"/><path class="cls-2" d="M67.56,76.18,0,76,14.8,95.25a5.18,5.18,0,0,0,4.11,2l41.72.09Z"/><path class="cls-2" d="M78.3,50.19l-21,64.21,22.85-8.13a5.19,5.19,0,0,0,3.2-3.28l13-39.65Z"/><path class="cls-2" d="M56.91,32l54.57,39.83-.67-24.25a5.2,5.2,0,0,0-2.13-4.05L75,18.88Z"/></svg>